<svg xmlns="http://www.w3.org/2000/svg" viewBox="0 0 1600 900" role="img" aria-labelledby="title desc">
  <title id="title">文靜之潭奇幻水域背景</title>
  <desc id="desc">藍綠色水域、遺跡、瀑布與像素感光點組成的網站背景。</desc>
  <defs>
    <linearGradient id="sky" x1="0" x2="0" y1="0" y2="1">
      <stop offset="0" stop-color="#07182d"/>
      <stop offset="0.52" stop-color="#0d3450"/>
      <stop offset="1" stop-color="#03101b"/>
    </linearGradient>
    <radialGradient id="glow" cx="50%" cy="48%" r="38%">
      <stop offset="0" stop-color="#67e8f9" stop-opacity="0.72"/>
      <stop offset="0.42" stop-color="#0ea5e9" stop-opacity="0.24"/>
      <stop offset="1" stop-color="#020617" stop-opacity="0"/>
    </radialGradient>
    <filter id="blur"><feGaussianBlur stdDeviation="16"/></filter>
  </defs>
  <rect width="1600" height="900" fill="url(#sky)"/>
  <rect width="1600" height="900" fill="url(#glow)"/>

  <g opacity="0.45">
    <circle cx="800" cy="240" r="150" fill="none" stroke="#b8f7ff" stroke-width="3"/>
    <circle cx="800" cy="240" r="94" fill="none" stroke="#67e8f9" stroke-width="2"/>
    <path d="M800 68 831 205 970 240 831 275 800 412 769 275 630 240 769 205z" fill="none" stroke="#b8f7ff" stroke-width="3"/>
  </g>

  <g fill="#0b2234">
    <path d="M0 500 130 360 270 420 410 280 590 430 740 340 880 430 1030 285 1190 420 1330 350 1600 510 1600 900 0 900z"/>
    <path d="M0 560 190 430 380 520 560 390 790 560 960 420 1135 565 1330 455 1600 600 1600 900 0 900z" opacity="0.68"/>
  </g>

  <g opacity="0.85">
    <rect x="120" y="380" width="110" height="240" fill="#14314a"/>
    <rect x="250" y="430" width="80" height="190" fill="#10283e"/>
    <rect x="1300" y="360" width="110" height="260" fill="#14314a"/>
    <rect x="1430" y="420" width="86" height="210" fill="#10283e"/>
    <rect x="158" y="340" width="34" height="40" fill="#1e4a66"/>
    <rect x="1338" y="320" width="34" height="40" fill="#1e4a66"/>
  </g>

  <g fill="#67e8f9" opacity="0.42" filter="url(#blur)">
    <rect x="445" y="410" width="62" height="250"/>
    <rect x="1110" y="385" width="70" height="290"/>
    <ellipse cx="800" cy="720" rx="520" ry="92"/>
  </g>

  <g fill="#0f7c94" opacity="0.78">
    <ellipse cx="800" cy="730" rx="620" ry="120"/>
    <ellipse cx="800" cy="724" rx="470" ry="70" fill="#103c54"/>
    <ellipse cx="800" cy="708" rx="220" ry="26" fill="#67e8f9" opacity="0.35"/>
  </g>

  <g fill="#7dd3fc" opacity="0.9">
    <circle cx="260" cy="240" r="4"/><circle cx="348" cy="330" r="3"/><circle cx="1210" cy="250" r="4"/><circle cx="1360" cy="300" r="3"/>
    <circle cx="660" cy="145" r="3"/><circle cx="940" cy="175" r="3"/><circle cx="1020" cy="500" r="4"/><circle cx="520" cy="520" r="4"/>
  </g>

  <g opacity="0.55" fill="#b6f4ff">
    <rect x="520" y="690" width="52" height="8" rx="4"/>
    <rect x="610" y="735" width="70" height="8" rx="4"/>
    <rect x="925" y="705" width="60" height="8" rx="4"/>
    <rect x="1040" y="755" width="76" height="8" rx="4"/>
  </g>
</svg>
